<svg width="24" height="28" fill="none" xmlns="http://www.w3.org/2000/svg"><path d="M21.79 25.093a1.453 1.453 0 01.195 2.893L21.79 28H1.453a1.454 1.454 0 01-.198-2.893l.198-.014H21.79zM11.633.047a1.453 1.453 0 011.44 1.255l.013.198-.002 16.704 5.747-5.755a1.453 1.453 0 011.894-.143l.162.14a1.453 1.453 0 01.142 1.893l-.14.162-8.222 8.236-.135.122-.178.114-.07.04-.177.074-.232.058-.136.016-.116.004c-.098 0-.195-.01-.29-.031l-.16-.045a1.425 1.425 0 01-.497-.283l-8.313-8.303a1.453 1.453 0 011.89-2.197l.164.141 5.76 5.75V1.5A1.453 1.453 0 0111.633.047h.002z" fill="#fff"/></svg>