<svg width="68" height="68" fill="none" xmlns="http://www.w3.org/2000/svg"><path clip-rule="evenodd" d="M34 66c17.673 0 32-14.327 32-32C66 16.327 51.673 2 34 2 16.327 2 2 16.327 2 34c0 17.673 14.327 32 32 32z" stroke="#001A49" stroke-width="4"/><path d="M28 15.25c0-.69.56-1.25 1.25-1.25h9.5a1.25 1.25 0 010 2.5h-9.5c-.69 0-1.25-.56-1.25-1.25zm4.75 20.5a1.25 1.25 0 002.5 0v-9.5a1.25 1.25 0 00-2.5 0v9.5zM34 19c-9.389 0-17 7.611-17 17s7.611 17 17 17 17-7.611 17-17-7.611-17-17-17zM19.5 36c0-8.008 6.492-14.5 14.5-14.5S48.5 27.992 48.5 36 42.008 50.5 34 50.5 19.5 44.008 19.5 36zm28.635-16.635a1.25 1.25 0 10-1.768 1.768l2.5 2.5a1.25 1.25 0 101.768-1.768l-2.5-2.5z" fill="#001A49" stroke="#001A49"/></svg>