<svg width="23" height="27" fill="none" xmlns="http://www.w3.org/2000/svg"><path fill-rule="evenodd" clip-rule="evenodd" d="M21.284 19.537c-.68-.866-1.783-2.122-2.728-2.24-.575-.073-1.236.41-1.887.864-.127.064-1.109.656-1.228.691-.629.182-1.97.235-2.782-.514-.782-.723-2.017-2.062-3.015-3.288-.953-1.264-1.952-2.782-2.463-3.714-.534-.966-.15-2.244.181-2.807.06-.1.79-.86.954-1.038l.024.03c.605-.515 1.24-1.037 1.31-1.603.118-.942-.833-2.313-1.513-3.18C7.457 1.867 6.404.345 4.97.56c-.54.08-1.005.272-1.464.547l-.013-.015-.076.06-.04.02.005.007c-.264.206-1.017.775-1.102.852-.931.837-2.332 2.81-1.249 6.356.804 2.636 2.518 5.731 4.852 8.862l-.012.011c.114.151.231.288.35.434.112.15.221.297.336.445l.016-.011c2.477 3.02 5.076 5.434 7.447 6.858 3.192 1.915 5.462 1.052 6.51.366.098-.066.848-.656 1.102-.85l.007.006c.01-.01.015-.022.028-.032a4.99 4.99 0 00.068-.053l-.009-.013c.384-.376.692-.778.905-1.284.558-1.332-.667-2.72-1.347-3.59z" fill="#fff"/></svg>