<svg width="320" height="708" fill="none" xmlns="http://www.w3.org/2000/svg"><path fill="#fff" d="M-65.665-40h501v748h-501z"/><path d="M272.082 708h54.769L-21.981 507.709l-24.715 14.247L272.082 708z" fill="url(#paint0_linear_148_61)"/><path d="M366.034 590.899l-126.319 72.909 21.404 12.34 126.319-72.908-21.404-12.341z" fill="#FEFEFE"/><path opacity=".1" d="M215.835 482.774l-71.136-41.069 71.136-41.07 71.169 41.07-71.169 41.069z" fill="#000"/><path d="M263.127 443.545l-48.394 27.926v-45.518l48.394-27.926v45.518z" fill="#B6B6B6"/><path d="M214.732 471.471l-48.394-27.926v-45.518l48.394 27.926v45.518z" fill="#D1D1D1"/><path d="M214.732 425.953l-48.394-27.926 48.394-27.959 48.394 27.959-48.394 27.926z" fill="#FEFEFE"/><path d="M252.423 397.793l-37.692 21.772V292.443l37.692-21.772v127.122z" fill="#B6B6B6"/><path d="M214.732 419.565l-37.725-21.772V270.671l37.725 21.772v127.122z" fill="#D1D1D1"/><path d="M214.732 292.443l-37.725-21.772 37.725-21.772 37.691 21.772-37.691 21.772z" fill="#FEFEFE"/><path d="M238.88 270.872l-24.147 13.946v-27.925l24.147-13.947v27.926z" fill="#B8B8B8"/><path d="M214.733 284.818l-24.18-13.946v-27.926l24.18 13.947v27.925z" fill="#D1D1D1"/><path d="M214.733 256.892l-24.18-13.946L214.733 229l24.147 13.946-24.147 13.946z" fill="#FEFEFE"/><path d="M214.732 232.913l-17.391 10.033 17.391 10.034 17.357-10.034-17.357-10.033z" fill="#D1D1D1"/><path d="M230.752 243.716l1.337-.77-17.357-10.033-17.391 10.033 1.338.77 16.053-9.231 16.02 9.231zm-16.02 211.668l-48.394-27.926v1.204l48.394 27.926 48.394-27.926v-1.204l-48.394 27.926z" fill="#7E7E7E"/><path d="M214.732 440.835l-48.394-27.959v1.204l48.394 27.959 48.394-27.959v-1.204l-48.394 27.959z" fill="#7E7E7E"/><path d="M183.829 296.156l-2.14-1.237v-9.867l2.14 1.238v9.866zm6.054 3.512l-2.14-1.238v-9.866l2.14 1.238v9.866zm6.086 3.478l-2.14-1.238v-9.866l2.14 1.238v9.866zm6.054 3.511l-2.141-1.237v-9.866l2.141 1.237v9.866zm6.053 3.479l-2.14-1.238v-9.866l2.14 1.238v9.866zm-24.247 9.096l-2.14-1.237v-9.866l2.14 1.237v9.866zm6.054 3.479l-2.14-1.238v-9.866l2.14 1.238v9.866zm6.086 3.511l-2.14-1.237v-9.866l2.14 1.237v9.866zm6.054 3.479l-2.141-1.238v-9.866l2.141 1.238v9.866zm6.053 3.511l-2.14-1.237v-9.866l2.14 1.237v9.866zm-24.247 9.064l-2.14-1.238v-9.866l2.14 1.238v9.866zm6.054 3.511l-2.14-1.237v-9.866l2.14 1.237v9.866zm6.086 3.478l-2.14-1.237v-9.866l2.14 1.237v9.866zm6.054 3.512l-2.141-1.237v-9.866l2.141 1.237v9.866zm6.053 3.478l-2.14-1.204v-9.899l2.14 1.237v9.866zm-24.247 9.097l-2.14-1.238v-9.866l2.14 1.238v9.866zm6.054 3.478l-2.14-1.237v-9.866l2.14 1.237v9.866zm6.086 3.512l-2.14-1.238v-9.866l2.14 1.237v9.867zm6.054 3.478l-2.141-1.204v-9.9l2.141 1.238v9.866zm6.053 3.512l-2.14-1.238v-9.866l2.14 1.238v9.866zm-24.247 9.063l-2.14-1.238v-9.866l2.14 1.238v9.866zm6.054 3.512l-2.14-1.238v-9.866l2.14 1.238v9.866zm6.086 3.477l-2.14-1.204v-9.899l2.14 1.237v9.866zm6.054 3.512l-2.141-1.237v-9.866l2.141 1.237v9.866zm6.053 3.512l-2.14-1.238v-9.866l2.14 1.238v9.866zm37.693-106.252l2.107-1.238v-9.866l-2.107 1.238v9.866zm-6.087 3.511l2.141-1.237v-9.866l-2.141 1.237v9.866zm-6.054 3.478l2.141-1.237v-9.866l-2.141 1.237v9.866zm-6.053 3.512l2.141-1.237v-9.866l-2.141 1.237v9.866zm-6.054 3.479l2.141-1.238v-9.866l-2.141 1.238v9.866zm24.248 9.096l2.107-1.237v-9.866l-2.107 1.237v9.866zm-6.087 3.478l2.141-1.237v-9.866l-2.141 1.237v9.866zm-6.054 3.512l2.141-1.238v-9.866l-2.141 1.238v9.866zm-6.053 3.478l2.141-1.237v-9.866l-2.141 1.237v9.866zm-6.054 3.512l2.141-1.237v-9.866l-2.141 1.237v9.866zm24.248 9.063l2.107-1.237v-9.866l-2.107 1.237v9.866zm-6.087 3.512l2.141-1.237v-9.866l-2.141 1.237v9.866zm-6.054 3.478l2.141-1.237v-9.866l-2.141 1.237v9.866zm-6.053 3.512l2.141-1.238v-9.866l-2.141 1.238v9.866zm-6.054 3.478l2.141-1.204v-9.899l-2.141 1.237v9.866zm24.248 9.097l2.107-1.238v-9.866l-2.107 1.238v9.866zm-6.087 3.478l2.141-1.237v-9.866l-2.141 1.237v9.866zm-6.054 3.512l2.141-1.238v-9.866l-2.141 1.237v9.867zm-6.053 3.478l2.141-1.204v-9.9l-2.141 1.238v9.866zm-6.054 3.512l2.141-1.238v-9.866l-2.141 1.238v9.866zm24.248 9.062l2.107-1.237v-9.866l-2.107 1.237v9.866zm-6.087 3.512l2.141-1.237v-9.866l-2.141 1.237v9.866zm-6.054 3.478l2.141-1.204v-9.899l-2.141 1.237v9.866zm-6.053 3.512l2.141-1.237v-9.866l-2.141 1.237v9.866zm-6.054 3.511l2.141-1.237v-9.866l-2.141 1.237v9.866z" fill="#fff"/><path opacity=".1" d="M142.292 513.476l46.287-26.755-60.066-34.648-46.287 26.722 60.066 34.681z" fill="#000"/><path d="M141.891 387.526l32.508-18.796-42.207-24.347-32.507 18.762 42.206 24.381z" fill="#FEFEFE"/><path d="M132.494 349.199l34.848 20.1 1.104-.636-35.952-20.735-26.488 15.117 1.137.635 25.351-14.481z" fill="url(#paint1_linear_148_61)"/><path d="M132.494 349.199l34.848 20.1 1.104-.636-35.952-20.735-26.488 15.117 1.137.635 25.351-14.481z" fill="#7E7E7E"/><path d="M107.143 363.68l25.35-14.481 34.816 20.1-25.217 14.581-34.949-20.2z" fill="#D1D1D1"/><path d="M141.891 504.212l-42.206-24.38V363.145l42.206 24.381v116.686z" fill="#DEDEDE"/><path d="M174.399 485.417l-32.507 18.795V387.526l32.507-18.796v116.687z" fill="#B8B8B8"/><path d="M104.466 375.719l.769.435v16.388l-.769-.401v-16.422z" fill="#7E7E7E"/><path d="M112.225 380.201v16.388l-6.99-4.047v-16.388l6.99 4.047z" fill="#fff"/><path d="M124.9 399.632l-5.853 3.411v-8.093l5.853-3.411v8.093z" fill="#B8B8B8"/><path d="M99.718 385.05l-5.853 3.378-.033-8.06 5.852-3.378.034 8.06z" fill="#7E7E7E"/><path d="M119.048 403.044l-26.02-15.017v-8.093l26.02 15.016v8.094z" fill="#D1D1D1"/><path d="M119.048 394.013l-24.414-14.08 5.05-2.943v-.903l-6.054 3.512-.602.334 26.02 15.017.769-.468 5.084-2.943-.803-.435-5.05 2.909z" fill="#fff"/><path d="M104.466 400.603l.769.434v16.388l-.769-.401v-16.421z" fill="#7E7E7E"/><path d="M112.225 405.084v16.388l-6.99-4.047v-16.388l6.99 4.047z" fill="#fff"/><path d="M124.9 424.515l-5.853 3.411v-8.093l5.853-3.412v8.094z" fill="#B8B8B8"/><path d="M99.718 409.933l-5.853 3.378-.033-8.027 5.852-3.411.034 8.06z" fill="#7E7E7E"/><path d="M119.048 427.926l-26.02-15.016v-8.094l26.02 15.017v8.093z" fill="#D1D1D1"/><path d="M119.048 418.896l-24.414-14.08 5.05-2.943v-.903l-6.054 3.512-.602.334 26.02 15.017.769-.468 5.084-2.944-.803-.434-5.05 2.909z" fill="#fff"/><path d="M104.466 425.485l.769.434v16.388l-.769-.401v-16.421z" fill="#7E7E7E"/><path d="M112.225 429.966v16.421l-6.99-4.08v-16.388l6.99 4.047z" fill="#fff"/><path d="M124.9 449.397l-5.853 3.411v-8.093l5.853-3.411v8.093z" fill="#B8B8B8"/><path d="M99.718 434.816l-5.853 3.377-.033-8.026 5.852-3.412.034 8.061z" fill="#7E7E7E"/><path d="M119.048 452.808l-26.02-15.016v-8.094l26.02 15.017v8.093z" fill="#D1D1D1"/><path d="M119.048 443.778l-24.414-14.08 5.05-2.943v-.903l-6.054 3.512-.602.334 26.02 15.017.769-.468 5.084-2.91-.803-.468-5.05 2.909z" fill="#fff"/><path d="M104.466 450.367l.769.434v16.388l-.769-.401v-16.421z" fill="#7E7E7E"/><path d="M112.225 454.848v16.421l-6.99-4.08v-16.387l6.99 4.046z" fill="#fff"/><path d="M124.9 474.313l-5.853 3.378v-8.094l5.853-3.378v8.094z" fill="#B8B8B8"/><path d="M99.718 459.698l-5.853 3.378-.033-8.027 5.852-3.411.034 8.06z" fill="#7E7E7E"/><path d="M119.048 477.691l-26.02-15.017v-8.093l26.02 15.016v8.094z" fill="#D1D1D1"/><path d="M119.048 468.694l-24.414-14.113 5.05-2.943v-.903l-6.054 3.511-.602.335 26.02 15.016.769-.468 5.084-2.91-.803-.468-5.05 2.943z" fill="#fff"/><path d="M152.125 388.596l-.502.301v10.97l.502-.301v-10.97z" fill="#7E7E7E"/><path d="M146.941 391.606v10.97l4.682-2.709v-10.97l-4.682 2.709z" fill="#fff"/><path d="M160.954 383.513l-.502.301v10.969l.502-.301v-10.969z" fill="#7E7E7E"/><path d="M155.771 386.522v10.97l4.682-2.709v-10.97l-4.682 2.709z" fill="#fff"/><path d="M169.782 378.429l-.501.268V389.7l.501-.301v-10.97z" fill="#7E7E7E"/><path d="M164.599 381.405v11.004l4.682-2.709v-11.004l-4.682 2.709z" fill="#fff"/><path d="M152.125 413.479l-.502.267v11.003l.502-.301v-10.969z" fill="#7E7E7E"/><path d="M146.941 416.455v11.003l4.682-2.709v-11.003l-4.682 2.709z" fill="#fff"/><path d="M160.954 408.395l-.501.268v11.003l.501-.301v-10.97z" fill="#7E7E7E"/><path d="M155.771 411.372v10.969l4.682-2.675v-11.003l-4.682 2.709z" fill="#fff"/><path d="M169.782 403.278l-.502.301v10.97l.502-.268v-11.003z" fill="#7E7E7E"/><path d="M164.599 406.288v10.97l4.682-2.709v-10.97l-4.682 2.709z" fill="#fff"/><path d="M152.125 438.328l-.502.301v10.969l.502-.267v-11.003z" fill="#7E7E7E"/><path d="M146.941 441.338v10.969l4.682-2.709v-10.969l-4.682 2.709z" fill="#fff"/><path d="M160.954 433.244l-.501.301v10.97l.501-.268v-11.003z" fill="#7E7E7E"/><path d="M155.771 436.254v10.97l4.682-2.709v-10.97l-4.682 2.709z" fill="#fff"/><path d="M169.782 428.161l-.502.301v10.969l.502-.301v-10.969z" fill="#7E7E7E"/><path d="M164.599 431.171v10.969l4.682-2.709v-10.969l-4.682 2.709z" fill="#fff"/><path d="M152.125 463.21l-.502.301v10.97l.502-.301v-10.97z" fill="#7E7E7E"/><path d="M146.941 466.22v10.969l4.682-2.709v-10.969l-4.682 2.709z" fill="#fff"/><path d="M160.954 458.126l-.501.268v11.003l.501-.301v-10.97z" fill="#7E7E7E"/><path d="M155.771 461.103v11.003l4.682-2.709v-11.003l-4.682 2.709z" fill="#fff"/><path d="M169.782 453.043l-.502.267v11.004l.502-.301v-10.97z" fill="#7E7E7E"/><path d="M164.599 456.019v11.003l4.682-2.709V453.31l-4.682 2.709z" fill="#fff"/><path opacity=".1" d="M281.721 517.79l-44.681-25.819c-2.91-1.672-2.542-4.615.802-6.555l43.043-24.849c3.378-1.939 8.461-2.14 11.371-.468l44.681 25.786c2.91 1.672 2.542 4.615-.802 6.555l-43.043 24.849c-3.378 1.973-8.461 2.174-11.371.501z" fill="#000"/><path d="M283.36 356.422l-30.702-17.725c-2.007-1.17-1.739-3.177.568-4.515l29.565-17.056c2.308-1.338 5.819-1.472 7.826-.335l30.702 17.726c2.006 1.17 1.739 3.177-.569 4.515l-29.564 17.056c-2.308 1.338-5.82 1.472-7.826.334z" fill="#FEFEFE"/><path d="M261.421 337.058l22.407-12.943c1.74-1.003 4.415-1.137 5.92-.234l23.244 13.411c.2.134.368.234.501.402.803-.903.669-1.974-.501-2.676l-23.244-13.411c-1.505-.87-4.18-.769-5.92.234l-22.407 12.943c-1.505.869-1.873 2.14-.937 3.043.235-.301.536-.568.937-.769z" fill="#7E7E7E"/><path d="M260.987 338.195l23.243 13.411c1.505.87 4.181.77 5.92-.234l22.407-12.943c.402-.234.703-.501.937-.769a3.286 3.286 0 00-.502-.401l-23.243-13.411c-1.505-.87-4.181-.77-5.92.234l-22.408 12.943a3.706 3.706 0 00-.936.769c.134.134.301.267.502.401z" fill="#D1D1D1"/><path d="M322.656 336.624c-.067.836-.703 1.705-1.907 2.408l-29.564 17.056c-1.204.702-2.709 1.07-4.181 1.104h-.033v151.402c1.471-.034 3.01-.402 4.214-1.104l29.665-17.123c1.003-.569 1.605-1.271 1.806-2.007V336.624z" fill="#B8B8B8"/><path d="M252.692 338.697c-.97-.568-1.372-1.304-1.338-2.073h-.034v152.003c.168.536.569 1.004 1.238 1.405l30.768 17.759c.97.569 2.275.803 3.646.769V357.192h-.034c-1.337.033-2.642-.201-3.612-.769l-30.634-17.726z" fill="#D1D1D1"/><path d="M291.186 378.261c-2.609 1.505-5.418 1.606-7.826.335l-32.04-18.495v.87l32.04 18.494c2.006 1.171 5.485 1.004 7.826-.334l31.471-18.194v-.836l-31.471 18.16zm0 22.742c-2.609 1.505-5.418 1.606-7.826.335l-32.04-18.495v.87l32.04 18.494c2.006 1.171 5.485 1.004 7.826-.334l31.471-18.194v-.836l-31.471 18.16zm0 22.742c-2.609 1.505-5.418 1.606-7.826.335l-32.04-18.495v.87l32.04 18.494c2.006 1.171 5.485 1.004 7.826-.334l31.471-18.194v-.836l-31.471 18.16zm0 22.743c-2.609 1.505-5.418 1.605-7.826.334l-32.04-18.495v.87l32.04 18.495c2.006 1.17 5.485 1.003 7.826-.335l31.471-18.194v-.836l-31.471 18.161zm0 22.741c-2.609 1.505-5.418 1.606-7.826.335l-32.04-18.495v.87l32.04 18.494c2.006 1.171 5.485 1.004 7.826-.334l31.471-18.194v-.836l-31.471 18.16z" fill="#7E7E7E"/><path opacity=".1" d="M507.436 602.605L391.585 544.78l-39.966-36.153-89.697 52.173 50.501 29.698 36.755-21.237 108.894 62.875 49.364-29.531z" fill="#000"/><path d="M349.345 560.933l-35.652 20.568v-41.136l35.652-20.568v41.136z" fill="#B8B8B8"/><path d="M313.694 581.501l-35.618-20.568v-41.136l35.618 20.568v41.136z" fill="#D1D1D1"/><path d="M313.694 540.365l-35.618-20.568 71.269-41.17 35.652 20.568-71.303 41.17z" fill="#FEFEFE"/><path d="M283.527 535.181v16.054l1.806 1.036v-16.053l-1.806-1.037z" fill="#7E7E7E"/><path d="M307.306 548.894l-21.973-12.675v16.053l21.973 12.675v-16.053z" fill="#FEFEFE"/><path d="M313.694 508.727l-14.649 8.495 14.649 8.461 14.682-8.461-14.682-8.495z" fill="#D1D1D1"/><path d="M328.375 517.222v1.839l-14.682 8.461v-1.839l14.682-8.461z" fill="#B8B8B8"/><path d="M299.045 517.222v1.839l14.649 8.461v-1.839l-14.649-8.461z" fill="#DFDFDF"/><path d="M290.5 645.748c-2.776-1.606-7.257-1.606-10 0-2.508 1.471-2.708 3.745-.635 5.317l-36.004 19.444L96.589 582.74l-1.037 1.806 147.807 88.036.502.301 38.312-20.748c2.675.837 6.053.669 8.327-.635 2.743-1.572 2.743-4.181 0-5.752z" fill="#F40494"/><path opacity=".1" d="M212.123 637.621s.401 18.996-28.094 23.645c-28.494 4.649-91.436-35.919-97.088-39.297-5.652-3.378-11.137-16.722-10.468-25.05.702-8.327 12.575-1.906 12.575-1.906l123.075 42.608z" fill="#000"/><path d="M177.909 644.577l2.441 9.064c.101.836-.033 1.605 1.706 1.337 3.779-.602 13.679-2.508 20.936-7.591 3.311-2.342 5.418-4.047 6.756-5.251a7.263 7.263 0 002.374-5.385v-10.668l-28.829 10.668a1.798 1.798 0 00-1.036 1.004l-3.445 5.117c-.167.267-.937 1.371-.903 1.705z" fill="url(#paint2_linear_148_61)"/><path d="M140.486 636.049l17.825-4.916-18.427-9.197-.301 12.006.903 2.107z" fill="#950B63"/><path d="M160.318 642.671c0-5.352-3.746-11.873-8.394-14.549-2.342-1.337-4.449-1.471-5.954-.568l-1.939 1.137.635.1c-.702 1.004-1.104 2.408-1.104 4.181 0 5.351 3.746 11.872 8.395 14.548 1.438.836 2.776 1.171 3.946 1.137l-.401.836 2.341-1.338c.034 0 .067-.033.101-.066l.1-.067c1.404-.937 2.274-2.776 2.274-5.351z" fill="#191919"/><path d="M158.077 644.008c0 5.351-3.746 7.525-8.395 4.85-4.649-2.676-8.394-9.198-8.394-14.549 0-5.351 3.745-7.525 8.394-4.849 4.615 2.675 8.395 9.197 8.395 14.548z" fill="#323232"/><path d="M154.698 642.069c0 3.21-2.241 4.514-5.017 2.909-2.776-1.605-5.016-5.518-5.016-8.729 0-3.21 2.24-4.515 5.016-2.909 2.776 1.605 5.017 5.518 5.017 8.729z" fill="#EEEFEF"/><path d="M150.819 639.828c0 .735-.535 1.036-1.171.668-.635-.367-1.17-1.27-1.17-2.006 0-.736.501-1.037 1.17-.669.669.368 1.171 1.271 1.171 2.007z" fill="#323232"/><path d="M84.132 603.708l1.672.067 5.652-6.053-5.92-.836-1.872 6.053.468.769z" fill="#950B63"/><path d="M103.731 613.407c0-5.351-3.746-11.873-8.395-14.548-2.34-1.338-4.448-1.472-5.953-.569l-1.94 1.137.636.101c-.703 1.003-1.104 2.408-1.104 4.18 0 5.351 3.746 11.873 8.395 14.548 1.438.836 2.775 1.171 3.946 1.137l-.401.837 2.341-1.372c.033 0 .067-.033.1-.067l.1-.066c1.405-.903 2.275-2.743 2.275-5.318z" fill="#191919"/><path d="M101.456 614.711c0 5.351-3.745 7.525-8.394 4.85-4.649-2.676-8.394-9.197-8.394-14.549 0-5.351 3.745-7.524 8.394-4.849 4.649 2.676 8.394 9.197 8.394 14.548z" fill="#323232"/><path d="M98.112 612.772c0 3.21-2.24 4.515-5.017 2.909-2.776-1.605-5.016-5.518-5.016-8.729 0-3.21 2.24-4.514 5.016-2.909 2.776 1.605 5.017 5.518 5.017 8.729z" fill="#EEEFEF"/><path d="M94.233 610.531c0 .735-.502 1.036-1.17.669-.636-.368-1.17-1.271-1.17-2.007 0-.736.534-1.037 1.17-.669.668.368 1.17 1.271 1.17 2.007z" fill="#323232"/><path d="M78.848 582.07l31.103-19.699c1.371-.869 2.876-1.271 4.415-.735l7.725 2.709s17.625-1.773 31.839 5.384c14.214 7.157 22.876 18.495 24.882 20.602 2.007 2.107 10.268 11.605 10.268 11.605s22.173 16.153 23.043 23.979c0 .101 0 .167-.067.234-1.171 1.137-13.746 13.11-31.404 17.826-.836.234-1.706.1-2.442-.334l-27.725-16.254-72.473-39.03.836-6.287z" fill="url(#paint3_linear_148_61)"/><path d="M175.234 638.289c-7.525-7.391-21.772-16.889-28.093-26.655-6.321-9.765-17.291-20.401-30.735-24.414-11.974-3.578-23.144-1.739-23.947-1.605h-.1l-12.24-4.147a1.566 1.566 0 00-2.074 1.505v6.287c0 .067 0 .101-.067.134-.334.301-2.073 2.107-1.706 5.92.402 4.214 2.81 5.518 2.81 5.518l5.083 2.91c0-.201.034-.235.034-.402.401-4.414 5.317-6.689 9.933-4.013 4.648 2.676 8.394 9.197 8.394 14.548 0 .134 0 .268-.033.402l33.611 19.297 4.047 2.307c.134.067.334-.033.301-.2-.167-1.739-.468-8.495 5.485-8.662 7.023-.201 12.608 9.431 13.244 15.183.2 1.907-.067 3.345-.201 4.382 0 .066.033.133.1.167l9.833 5.652c.1.033 4.615 2.207 10.936 2.709a.761.761 0 00.803-.636c.301-2.274.903-9.966-5.418-16.187z" fill="url(#paint4_linear_148_61)"/><path d="M93.128 588.993l58.427 34.213s-8.26-17.893-20.501-26.354c-11.471-7.926-18.093-9.532-26.053-10.033-6.354-.468-11.873 2.174-11.873 2.174zm49.664 11.371l14.95 18.294a2.004 2.004 0 002.207.669c3.846-1.238 15.217-5.485 25.284-15.284a1.448 1.448 0 00.067-1.973l-15.753-18.194a1.305 1.305 0 00-1.906-.067c-2.441 2.508-9.832 9.097-24.347 14.682-.736.301-1.004 1.237-.502 1.873zm-34.48-17.793c-1.304-.2-4.749-.735-7.826-.735-.401 0-.535-.502-.2-.736l22.775-14.247c.167-.101.368-.168.569-.201 1.103-.1 4.883-.401 7.458-.034.368.067.468.536.167.736l-21.973 14.983c-.301.201-.635.301-.97.234z" fill="#EEEFEF"/><path d="M77.979 589.06v-3.779s4.782 1.471 4.816 4.18c.067 2.742-4.816-.401-4.816-.401z" fill="#D64883"/><path d="M212.122 629.627v5.853s-1.973 2.475-4.147 2.107c-2.174-.401-1.137-4.013 0-4.649 1.137-.702 4.147-3.311 4.147-3.311zm-31.939 17.325s5.284-2.375 6.354-1.037c1.305 1.639.97 4.214-1.572 5.117-2.541.903-3.645 1.404-4.648 1.271-1.004-.134-2.141-.168-2.877-.636-1.204-.702-1.438-3.612 0-4.548.636-.368 2.743-.167 2.743-.167z" fill="#EEEFEF"/><path d="M207.14 548.693l-45.751-26.087 45.45-26.554 45.752 26.053-45.451 26.588z" fill="#FEFEFE"/><g clip-path="url(#clip0_148_61)"><path opacity=".1" d="M241.549 558.134l-11.76-6.788 10.149-5.862 11.724 6.81-10.113 5.84zm-46.658-26.535l-11.76-6.789 10.15-5.861 11.723 6.81-10.113 5.84z" fill="#000"/><path d="M235.055 530.429v21.446l6.464 3.736v-21.446l-6.464-3.736z" fill="#B8B8B8"/><path d="M246.477 552.75l-4.957 2.861v-21.446l4.957-2.861v21.446z" fill="#A2A2A2"/><path d="M188.441 503.519v21.446l6.465 3.729v-21.446l-6.465-3.729z" fill="#B8B8B8"/><path d="M199.856 525.84l-4.95 2.854v-21.446l4.95-2.854v21.446z" fill="#A2A2A2"/><path d="M248.146 545.146L182.418 507.1V405.18l65.728 38.046v101.92z" fill="#D1D1D1"/><path d="M241.453 536.099l-53.828-31.168-.007-90.55 53.828 31.169.007 90.549z" fill="#EB242A"/><path d="M189.405 415.411l-1.787-1.03v90.557l53.828 31.169v-1.971l-52.041-30.132v-88.593z" fill="#7E7E7E"/><path d="M256.31 540.454l-8.164 4.692v-101.92l8.164-4.692v101.92z" fill="#B8B8B8"/><path d="M190.582 400.488l-8.164 4.693 65.728 38.045 8.164-4.692-65.728-38.046z" fill="#FEFEFE"/></g><g clip-path="url(#clip1_148_61)" fill="#fff"><path d="M203.084 432.45v19.04l-3.23-1.922v-14.707l-3.88-.873v-2.962l6.762 1.218.348.206zm16.307 17.571v3.288c0 1.427-.131 2.58-.393 3.46-.262.87-.639 1.49-1.133 1.857-.486.364-1.065.502-1.738.415-.673-.088-1.421-.376-2.243-.865a10.755 10.755 0 01-1.839-1.381 10.523 10.523 0 01-1.537-1.841 12.602 12.602 0 01-1.166-2.273 14.562 14.562 0 01-.74-2.737 18.754 18.754 0 01-.258-3.207v-3.288c0-1.427.131-2.572.392-3.434.27-.866.647-1.481 1.133-1.845.494-.358 1.077-.49 1.75-.394.673.087 1.42.375 2.243.865a10.25 10.25 0 011.828 1.387c.568.53 1.08 1.135 1.536 1.815.456.68.845 1.438 1.166 2.273.322.826.569 1.734.741 2.724.172.981.258 2.041.258 3.181zm-3.242 1.856v-4.294c0-.687-.033-1.307-.1-1.86a8.525 8.525 0 00-.281-1.472 5.621 5.621 0 00-.471-1.168 4.137 4.137 0 00-.639-.876 3.821 3.821 0 00-.796-.63c-.367-.218-.692-.329-.976-.333-.277.001-.512.126-.707.376-.194.241-.344.63-.448 1.168-.097.534-.146 1.227-.146 2.08v4.293c0 .687.03 1.31.09 1.867.067.562.164 1.068.291 1.518.135.445.292.839.471 1.181.187.337.4.629.64.876.246.251.515.463.807.637.359.213.677.32.953.319.284-.005.524-.132.718-.382.202-.254.351-.652.449-1.195.097-.542.145-1.244.145-2.105zm5.395-3.746v-1.005c0-.722.134-1.299.404-1.73.269-.432.665-.67 1.188-.716.524-.045 1.167.159 1.929.613a7.017 7.017 0 011.963 1.703 7.35 7.35 0 011.189 2.129c.269.752.403 1.489.403 2.211v1.005c0 .704-.134 1.272-.403 1.704-.262.436-.655.676-1.178.722-.523.045-1.17-.161-1.94-.619a7.1 7.1 0 01-1.963-1.703 7.594 7.594 0 01-1.188-2.13 6.446 6.446 0 01-.404-2.184zm2.142.269v1.005c0 .304.048.625.146.961.104.332.261.647.471.946.216.294.478.532.785.715.321.191.583.264.785.219a.673.673 0 00.448-.399c.098-.22.146-.483.146-.787v-1.005a3.24 3.24 0 00-.157-.981 3.017 3.017 0 00-.46-.939 2.46 2.46 0 00-.785-.728c-.299-.178-.553-.242-.762-.193-.21.041-.367.169-.471.386-.098.211-.146.478-.146.8zm5.663 15.062v-1.005c0-.713.135-1.286.404-1.717.277-.427.677-.663 1.2-.709.531-.04 1.181.168 1.951.626a6.995 6.995 0 011.952 1.696 7.622 7.622 0 011.189 2.13c.269.752.403 1.484.403 2.198v1.004c0 .714-.134 1.286-.403 1.718-.262.436-.655.676-1.178.722-.523.045-1.17-.162-1.94-.62a7.08 7.08 0 01-1.963-1.702 7.757 7.757 0 01-1.211-2.143 6.508 6.508 0 01-.404-2.198zm2.154.276v1.005c0 .313.059.645.179.994.12.35.284.669.493.959.217.295.468.526.752.695.359.214.639.298.841.253.202-.045.34-.185.415-.419a2.42 2.42 0 00.123-.814v-1.005c0-.313-.052-.635-.157-.967a3.187 3.187 0 00-.471-.946 2.444 2.444 0 00-.774-.722c-.314-.186-.575-.255-.785-.206-.201.046-.355.176-.459.392-.105.208-.157.468-.157.781zm2.198-10.319l-7.974 10.106-1.57-1.899 7.974-10.107 1.57 1.9zm-31.715 20.76l2.19 1.302c-.058.809-.268 1.433-.63 1.871-.358.441-.852.658-1.483.649-.626-.005-1.376-.268-2.25-.787a7.927 7.927 0 01-1.831-1.503 9.33 9.33 0 01-1.371-2.02 10.234 10.234 0 01-.841-2.393 11.345 11.345 0 01-.259-2.641l.014-.86c.015-.909.131-1.669.349-2.28.222-.613.53-1.064.924-1.351.399-.284.872-.405 1.419-.361.546.045 1.154.266 1.823.663a8.433 8.433 0 012.238 1.9 8.534 8.534 0 011.403 2.4c.33.862.523 1.734.577 2.615l-2.196-1.307a5.121 5.121 0 00-.236-1.421 3.484 3.484 0 00-.653-1.189c-.29-.356-.679-.679-1.167-.97-.366-.218-.687-.328-.963-.332a.886.886 0 00-.701.315c-.191.213-.336.539-.437.978-.096.436-.15.984-.161 1.643l-.014.877c-.011.642.021 1.232.096 1.77a6.73 6.73 0 00.361 1.453c.17.434.39.817.661 1.15.275.331.608.612.999.844.459.273.839.413 1.139.42a.763.763 0 00.694-.353c.166-.239.269-.6.306-1.082zm8.07-1.429l-3.071 8.558-2.336-1.39 4.168-10.047 1.486.884-.247 1.995zm2.238 11.717l-2.736-12.013-.199-2.261 1.501.893 3.778 14.775-2.344-1.394zm-.055-4.696l-.033 2.002-5.631-3.35.033-2.002 5.631 3.35zm8.992 6.734a2.427 2.427 0 00-.078-.648 2.283 2.283 0 00-.3-.677 6.176 6.176 0 00-.629-.831c-.271-.31-.623-.674-1.054-1.092a27.278 27.278 0 01-1.367-1.432 13.094 13.094 0 01-1.129-1.472 7.437 7.437 0 01-.759-1.527 4.504 4.504 0 01-.255-1.571c.009-.517.114-.927.317-1.232a1.38 1.38 0 01.838-.602c.356-.098.775-.087 1.256.033.486.123 1.017.356 1.593.699a8.165 8.165 0 012.05 1.718c.58.678 1.027 1.4 1.34 2.165.317.768.47 1.521.458 2.26l-2.183-1.298a2.96 2.96 0 00-.182-1.072 3.224 3.224 0 00-.574-1.005 3.672 3.672 0 00-.978-.822c-.381-.227-.699-.347-.955-.362-.256-.02-.449.045-.58.197-.131.146-.198.358-.203.636-.003.211.037.427.122.65.09.225.224.466.403.721.178.255.398.526.659.814.261.287.564.596.909.928.577.55 1.084 1.083 1.519 1.6.44.52.806 1.028 1.099 1.523.292.495.511.989.656 1.483.144.493.212.995.204 1.506-.009.54-.107.969-.295 1.287a1.283 1.283 0 01-.802.616c-.346.092-.758.074-1.234-.054-.476-.129-1.007-.367-1.593-.716a9.628 9.628 0 01-1.555-1.166c-.51-.47-.972-.994-1.387-1.573a7.843 7.843 0 01-.975-1.854 5.622 5.622 0 01-.343-2.037l2.204 1.312c-.006.386.039.743.138 1.071.098.328.238.629.421.904.188.278.41.531.668.759.262.231.549.439.862.625.381.226.694.35.94.37.251.023.437-.041.558-.193.126-.149.191-.362.196-.641zm10.869 2.32l-.033 1.994-5.566-3.312.034-1.993 5.565 3.311zm-4.83-7.975l-.206 12.404-2.196-1.307.205-12.404 2.197 1.307zm6.481 3.855l-.206 12.405-2.189-1.303.205-12.404 2.19 1.302zm-34.097 7.948l-2.739-1.629.014-1.764 2.3 1.368c.405.241.738.379.999.413.26.029.456-.035.587-.192.136-.16.206-.411.212-.752a2.739 2.739 0 00-.175-1.05 2.48 2.48 0 00-.57-.864 4.916 4.916 0 00-1-.759l-1.523-.906-.173 10.403-2.197-1.307.206-12.405 3.72 2.213c.62.369 1.173.767 1.659 1.194.491.429.905.885 1.242 1.367.337.481.592.989.766 1.522.173.528.255 1.081.246 1.661-.009.511-.117.923-.324 1.235-.202.316-.518.484-.947.504-.425.022-.976-.154-1.655-.529l-.648.277zm-.186 5.387l-3.244-1.93.89-1.484 2.387 1.421c.386.229.702.345.948.349.247-.003.431-.094.552-.274.121-.181.185-.432.19-.756a3.3 3.3 0 00-.145-1.042 2.61 2.61 0 00-.488-.909 3.3 3.3 0 00-.904-.762l-2.117-1.259.044-1.746 2.636 1.568.494.991c.65.374 1.17.819 1.56 1.332.396.511.681 1.039.854 1.584.179.547.263 1.071.255 1.571-.013.795-.173 1.377-.48 1.745-.307.362-.75.508-1.331.438-.576-.067-1.276-.346-2.101-.837zm10.005-4.432l-3.07 8.558-2.336-1.39 4.167-10.047 1.487.884-.248 1.995zm2.239 11.716l-2.737-12.012-.199-2.261 1.501.893 3.778 14.775-2.343-1.395zm-.055-4.696l-.034 2.003-5.631-3.351.033-2.002 5.632 3.35zm9.504 6.162l2.189 1.303c-.058.809-.268 1.432-.63 1.871-.357.441-.851.657-1.482.649-.626-.005-1.376-.268-2.25-.788a7.855 7.855 0 01-1.831-1.502 9.281 9.281 0 01-1.372-2.021 10.27 10.27 0 01-.84-2.392 11.345 11.345 0 01-.26-2.641l.015-.861c.015-.908.131-1.668.348-2.279.222-.613.53-1.064.925-1.351.399-.285.871-.405 1.418-.361.546.044 1.154.265 1.823.663a8.438 8.438 0 012.239 1.9 8.53 8.53 0 011.402 2.4c.331.862.523 1.734.578 2.615l-2.197-1.307a5.135 5.135 0 00-.235-1.422 3.509 3.509 0 00-.654-1.188c-.289-.356-.678-.68-1.167-.97-.366-.218-.687-.329-.963-.332a.886.886 0 00-.7.314c-.191.214-.337.54-.438.979-.096.436-.149.984-.16 1.642l-.015.878c-.011.642.022 1.232.096 1.769.075.533.196 1.017.361 1.454.17.434.391.817.661 1.15.276.331.609.612.999.844.459.273.839.413 1.14.42.3.007.531-.111.693-.353.167-.239.269-.6.307-1.083zm5.966-4.821l-.206 12.404-2.197-1.307.206-12.404 2.197 1.307zm6.385 3.799l-4.326 3.611-2.49 1.6-.355-2.655 1.691-1.644 2.786-2.516 2.694 1.604zm-2.702 10.918l-3.047-7.602 1.652-.618 3.994 9.767-2.599-1.547z"/></g><path d="M249.436 618.904s2.87-14.537-12.743-13.638c0 0 .275 16.002 12.743 13.638zm10.486 5.46s-4.747-9.434 9.536-12.53c0 0 1.519 13.596-9.536 12.53z" fill="#EC715D"/><path d="M263.888 595.77s7.638 16.42-6.92 19.264c-.021 0-10.253-11.881 6.92-19.264z" fill="#E65473"/><path d="M255.956 631.789h.485c-.042-.356-.063-.711-.105-1.046-.211-2.97-.148-5.961.105-8.932.253-2.97.696-5.919 1.266-8.848.295-1.464.612-2.928.992-4.371a81.932 81.932 0 011.202-4.33c-1.097 2.782-1.941 5.689-2.595 8.597a77.972 77.972 0 00-.865 4.413 78.141 78.141 0 00-.548 4.477 53.245 53.245 0 00-.19 4.497c0 1.506.063 2.991.168 4.56.022.376.043.648.085.983zm-11.709-20.687l.738.983c.253.314.464.669.718 1.004.232.335.485.669.696 1.025l.654 1.046c.211.355.443.69.633 1.067l.59 1.087c.19.356.401.711.57 1.088.359.732.738 1.464 1.076 2.217l.992 2.259.253.565.211.586.443 1.15c.633 1.527 1.097 3.096 1.624 4.644l.19.585.169.586.338 1.192.084.314h.675l-.548-1.673-.169-.607-.19-.586c-.506-1.568-.992-3.158-1.604-4.685l-.443-1.15-.232-.586-.253-.565-1.013-2.259c-.358-.732-.759-1.485-1.139-2.217-.19-.377-.401-.732-.612-1.088l-.633-1.067c-.211-.355-.421-.711-.654-1.046l-.696-1.024c-.232-.356-.485-.67-.738-1.004-.253-.335-.485-.67-.76-.984l-.801-.941-.865-.899c-.591-.586-1.203-1.151-1.878-1.611.654.523 1.202 1.13 1.751 1.736l.823.858zm13.861 21.377l.084-.627.148-.711.274-1.444.359-1.422c.485-1.883 1.118-3.744 1.962-5.501.422-.879.886-1.757 1.414-2.573.506-.837 1.097-1.632 1.793-2.322-.781.628-1.414 1.401-2.004 2.175-.296.398-.57.816-.844 1.235-.275.418-.486.857-.739 1.296-.928 1.757-1.582 3.64-2.11 5.564l-.358 1.444-.317 1.422-.147.774-.127.711h.612v-.021z" fill="#E02D7B"/><path d="M203.818 336.699c29.314 11.733 45.797-7.44 67.651 1.221 7.735 3.077 69.316 22.268 75.76-7.65.743 3.269.932 6.385.431 9.094-5.924 30.581-68.118 11.145-75.894 8.042-21.855-8.661-38.337 10.511-67.651-1.222-15.324-6.117-18.918-15.915-16.794-24.408 1.791 5.637 6.725 11.012 16.497 14.923z" fill="#D1D1D1"/><path d="M203.6 307.043c14.6-3.818-.371-31.552 33.449-36.213 33.82-4.661 38.705 45.696 66.141 35.07 22.748-8.815 40.534 9.945 44.184 25.684-6.416 29.636-67.73 10.625-75.467 7.585-21.772-8.577-38.188 10.416-67.391-1.203-9.702-3.881-14.65-9.197-16.458-14.739 1.926-7.727 8.546-14.348 15.542-16.184z" fill="#FEFEFE"/><path fill="url(#paint5_linear_148_61)" d="M-165.665-48h612v756h-612z"/><path opacity=".06" d="M108.774 557.349c-10.41 2.258-39.273-6.81-64.417-20.238-25.218-13.452-37.163-26.123-26.753-28.381 10.41-2.258 39.273 6.81 64.417 20.238 25.218 13.452 37.163 26.123 26.753 28.381z" fill="#000"/><g opacity=".4" clip-path="url(#clip2_148_61)"><path opacity=".1" d="M30.06 674.989L11 663.965l19.06-11.024 19.098 11.024-19.099 11.024z" fill="#000"/><path d="M30.06 666.21l-2.443-1.443v-23.491l2.442 1.443v23.491z" fill="#B8B8B8"/><path d="M32.542 664.767l-2.483 1.443v-23.491l2.483-1.443v23.491z" fill="#B8B8B8"/><path d="M30.06 659.395l-16.898-9.781L30.06 587v72.395z" fill="#D1D1D1"/><path d="M46.996 649.614l-16.937 9.781V587l16.937 62.614z" fill="#B8B8B8"/></g><path opacity=".1" d="M301.996 660.122c-8.738 5.051-22.895 5.051-31.595 0-8.738-5.05-8.738-13.198 0-18.249 8.737-5.05 22.894-5.05 31.595 0 8.737 5.051 8.737 13.199 0 18.249z" fill="#000"/><path d="M279.471 570.181c0-1.143.147-2.212.368-3.133-4.792-1.291-8.332 1.696-8.332 7.705 0 7.152 5.014 15.816 11.208 19.392 5.198 2.986 9.548 1.438 10.802-3.355-.922-.258-1.88-.664-2.876-1.217-6.156-3.576-11.17-12.239-11.17-19.392z" fill="url(#paint6_linear_148_61)"/><path d="M290.641 550.715c-5.493-3.17-10.507-3.465-14.341-1.401h-.037c-.332.185-.664.406-.995.627l-5.199 3.171c3.576-1.18 7.927-.59 12.646 2.138 11.982 6.931 21.714 24.885 21.714 40.111 0 15.227-21.714 38.01-21.714 38.01l7.926-4.571s21.715-22.821 21.715-38.01c.037-15.189-9.696-33.144-21.715-40.075z" fill="url(#paint7_linear_148_61)"/><path d="M261 570.292c0 15.226 21.715 63.116 21.715 63.116s21.714-22.82 21.714-38.009c0-15.227-9.733-33.181-21.714-40.112-4.719-2.728-9.07-3.318-12.646-2.138-5.493 1.806-9.069 7.926-9.069 17.143zm21.715 23.853c-6.194-3.576-11.171-12.24-11.171-19.392 0-5.972 3.539-8.996 8.332-7.705.922.258 1.88.663 2.876 1.216 6.193 3.577 11.207 12.24 11.207 19.392 0 1.143-.147 2.212-.369 3.134-1.327 4.793-5.677 6.341-10.875 3.355z" fill="url(#paint8_linear_148_61)"/><g clip-path="url(#clip3_148_61)"><path d="M21.144 422.758c2.953-12.074 9.223-21.107 17.531-26.671l-1.364-.545 8.54-3.203c.36-.135.722-.286 1.084-.406l.18-.067c12.97-4.555 29.015-2.382 44.943 7.592 31.219 19.56 50.1 61.705 42.148 94.132-3.537 14.435-11.793 24.501-22.613 29.521l.015.002-.075.021a36.903 36.903 0 01-4.774 1.825l-8.78 3.354-.013-1.693c-10.719.843-22.739-2.247-34.674-9.73-31.218-19.56-50.085-61.703-42.148-94.132z" fill="url(#paint9_linear_148_61)"/><path d="M11.325 426.448c-7.936 32.428 10.93 74.572 42.149 94.131 31.218 19.56 62.977 9.129 70.914-23.3 7.936-32.428-10.93-74.572-42.149-94.131-31.219-19.56-62.977-9.129-70.914 23.3z" fill="url(#paint10_linear_148_61)"/><path d="M18.465 431.288c-6.826 27.897 9.409 64.164 36.27 80.986 26.86 16.822 54.175 7.848 61.016-20.047 6.825-27.898-9.409-64.164-36.27-80.986-26.861-16.823-54.19-7.851-61.016 20.047z" fill="url(#paint11_linear_148_61)"/><path d="M18.465 431.288c-6.826 27.897 9.409 64.164 36.27 80.986 26.86 16.822 54.175 7.848 61.016-20.047 6.825-27.898-9.409-64.164-36.27-80.986-26.861-16.823-54.19-7.851-61.016 20.047z" fill="url(#paint12_linear_148_61)"/><path opacity=".4" d="M95.657 425.018c-6.06-7.856-19.753-17.284-29.18-19.977l-2.694 54.095 31.874-34.118z" fill="#E85B6B"/><path d="M59.947 510.522c-26.861-16.837-43.096-53.088-36.255-80.999 3.128-12.752 10.534-21.544 20.228-25.722-12.227 3.007-21.787 12.52-25.455 27.487-6.826 27.897 9.408 64.164 36.27 80.986 14.576 9.141 29.287 10.651 40.788 5.69-10.584 2.598-23.125.353-35.576-7.442z" fill="#BCBCBC"/><path d="M86.497 432.291l-25.854 28.608c-.284.328-.235.852.115 1.203.35.336.864.358 1.149.045l25.336-29.102c.285-.329.372-.728.098-.993-.305-.269-.71.089-.844.239z" fill="url(#paint13_linear_148_61)" stroke="url(#paint14_linear_148_61)" stroke-width="1.525" stroke-miterlimit="10"/><path d="M65.905 432.049l-1.858 27.683c-.027.377.278.752.657.833.378.08.708-.166.72-.545l1.298-27.788c.027-.377-.112-.73-.414-.786-.318-.041-.39.437-.403.603z" fill="url(#paint15_linear_148_61)" stroke="url(#paint16_linear_148_61)" stroke-width="1.525" stroke-miterlimit="10"/><path d="M67.026 414.004L67 410.969c-.008-.93.637-1.455 1.456-1.164.803.288 1.475 1.291 1.483 2.221l.025 3.036c.008.93-.638 1.455-1.456 1.164-.818-.291-1.476-1.291-1.483-2.222zm2.446 99.342c.803.288 1.464-.234 1.456-1.165l-.025-3.035c-.008-.93-.68-1.933-1.484-2.222-.803-.288-1.463.234-1.455 1.165l.025 3.035c.007.93.665 1.931 1.483 2.222zm18.738-83.937c.701.717 1.608.775 1.995.11l1.297-2.16c.402-.664.151-1.778-.565-2.513-.7-.716-1.607-.775-1.995-.11l-1.296 2.161c-.388.665-.137 1.795.564 2.512zm-41.249 68.876c.7.717 1.608.775 1.995.11l1.296-2.161c.403-.663.152-1.777-.564-2.512-.7-.717-1.608-.775-1.995-.11l-1.296 2.161c-.388.68-.137 1.795.564 2.512zm55.809-47.076c.416.953 1.312 1.559 2.005 1.345l2.261-.692c.693-.214.927-1.158.511-2.112-.416-.953-1.312-1.559-2.005-1.346l-2.276.691c-.678.216-.912 1.16-.496 2.114zm-72.418 22.187c.415.954 1.311 1.559 2.005 1.346l2.26-.693c.693-.213.927-1.158.511-2.111-.416-.954-1.312-1.56-2.005-1.346l-2.26.693c-.693.213-.927 1.157-.511 2.111zm77.907 2.395c.008.93.681 1.933 1.484 2.222l2.636.956c.803.289 1.463-.234 1.456-1.164-.008-.93-.681-1.933-1.484-2.222l-2.636-.956c-.818-.291-1.464.234-1.456 1.164zm-84.18-30.448c.008.931.68 1.934 1.483 2.222l2.637.957c.803.288 1.463-.234 1.455-1.165-.007-.93-.68-1.933-1.483-2.221l-2.636-.957c-.803-.288-1.464.219-1.456 1.164zm79.139 51.222c-.403.663-.152 1.777.564 2.512l2.3 2.344c.701.717 1.608.775 1.995.11.403-.663.152-1.778-.564-2.512l-2.3-2.344c-.701-.732-1.593-.774-1.995-.11zm-73.382-74.933c-.402.663-.151 1.778.565 2.512l2.3 2.345c.7.717 1.608.775 1.995.11.402-.663.151-1.778-.565-2.512l-2.3-2.344c-.7-.733-1.592-.774-1.995-.111zm59.154 86.315c-.693.213-.927 1.158-.511 2.111l1.34 3.117c.415.954 1.312 1.559 2.005 1.346.693-.213.927-1.158.511-2.111l-1.34-3.117c-.4-.952-1.296-1.558-2.005-1.346zm-42.915-99.322c-.694.214-.928 1.158-.512 2.112l1.34 3.117c.416.953 1.312 1.559 2.005 1.345.693-.213.927-1.157.511-2.111l-1.34-3.117c-.415-.969-1.311-1.559-2.005-1.346z" fill="url(#paint17_linear_148_61)"/><path d="M79.566 410.777c-22.58-14.147-45.466-10.155-56.397 7.904 4.19 27.086 24.468 55.477 53.367 71.116 12.457 6.744 24.994 10.265 36.595 10.857a45.116 45.116 0 002.925-8.398c6.867-28.068-9.466-64.554-36.49-81.479z" fill="url(#paint18_linear_148_61)"/></g><defs><linearGradient id="paint0_linear_148_61" x1="77.475" y1="571.752" x2="-53.611" y2="485.559" gradientUnits="userSpaceOnUse"><stop stop-color="#FEFEFE"/><stop offset="1" stop-color="#FEFEFE" stop-opacity="0"/></linearGradient><linearGradient id="paint1_linear_148_61" x1="169.426" y1="358.611" x2="105.021" y2="358.611" gradientUnits="userSpaceOnUse"><stop stop-color="#021290"/><stop offset="1" stop-color="#190158"/></linearGradient><linearGradient id="paint2_linear_148_61" x1="158.634" y1="626.634" x2="244.704" y2="658.141" gradientUnits="userSpaceOnUse"><stop stop-color="#E02D7B"/><stop offset=".319" stop-color="#E6506F"/><stop offset=".771" stop-color="#EE7C5F"/><stop offset="1" stop-color="#F18D59"/></linearGradient><linearGradient id="paint3_linear_148_61" x1="82.561" y1="570.282" x2="254.767" y2="645.315" gradientUnits="userSpaceOnUse"><stop stop-color="#E02D7B"/><stop offset=".319" stop-color="#E6506F"/><stop offset=".771" stop-color="#EE7C5F"/><stop offset="1" stop-color="#F18D59"/></linearGradient><linearGradient id="paint4_linear_148_61" x1="51.169" y1="596.883" x2="338.18" y2="669.456" gradientUnits="userSpaceOnUse"><stop stop-color="#E02D7B"/><stop offset=".319" stop-color="#E6506F"/><stop offset=".771" stop-color="#EE7C5F"/><stop offset="1" stop-color="#F18D59"/></linearGradient><linearGradient id="paint5_linear_148_61" x1="364.426" y1="-64.755" x2="-29.665" y2="560.5" gradientUnits="userSpaceOnUse"><stop offset=".53" stop-color="#fff"/><stop offset=".785" stop-color="#fff" stop-opacity="0"/></linearGradient><linearGradient id="paint6_linear_148_61" x1="253.75" y1="588.884" x2="364.74" y2="559.523" gradientUnits="userSpaceOnUse"><stop stop-color="#E02D7B"/><stop offset=".319" stop-color="#E6506F"/><stop offset=".771" stop-color="#EE7C5F"/><stop offset="1" stop-color="#F18D59"/></linearGradient><linearGradient id="paint7_linear_148_61" x1="240.177" y1="605.445" x2="394.462" y2="549.931" gradientUnits="userSpaceOnUse"><stop stop-color="#E02D7B"/><stop offset=".319" stop-color="#E6506F"/><stop offset=".771" stop-color="#EE7C5F"/><stop offset="1" stop-color="#F18D59"/></linearGradient><linearGradient id="paint8_linear_148_61" x1="215.855" y1="617.293" x2="310.3" y2="579.803" gradientUnits="userSpaceOnUse"><stop stop-color="#E02D7B"/><stop offset=".319" stop-color="#E6506F"/><stop offset=".771" stop-color="#EE7C5F"/><stop offset="1" stop-color="#F18D59"/></linearGradient><linearGradient id="paint9_linear_148_61" x1="19.43" y1="450.858" x2="135.799" y2="449.903" gradientUnits="userSpaceOnUse"><stop stop-color="#E02D7B"/><stop offset=".21" stop-color="#E02F78"/><stop offset=".39" stop-color="#E2376D"/><stop offset=".559" stop-color="#E5435B"/><stop offset=".721" stop-color="#E85443"/><stop offset=".877" stop-color="#ED6A23"/><stop offset="1" stop-color="#F17F04"/></linearGradient><linearGradient id="paint10_linear_148_61" x1="118.069" y1="443.023" x2="18.304" y2="490.307" gradientUnits="userSpaceOnUse"><stop stop-color="#E02D7B"/><stop offset=".21" stop-color="#E02F78"/><stop offset=".39" stop-color="#E2376D"/><stop offset=".559" stop-color="#E5435B"/><stop offset=".721" stop-color="#E85443"/><stop offset=".877" stop-color="#ED6A23"/><stop offset="1" stop-color="#F17F04"/></linearGradient><linearGradient id="paint11_linear_148_61" x1="32.839" y1="492.056" x2="101.352" y2="431.472" gradientUnits="userSpaceOnUse"><stop stop-color="#7AA9F2"/><stop offset=".203" stop-color="#90BBF6"/><stop offset=".52" stop-color="#ACD3FB"/><stop offset=".797" stop-color="#BEE2FE"/><stop offset="1" stop-color="#C4E7FF"/></linearGradient><linearGradient id="paint12_linear_148_61" x1="32.839" y1="492.056" x2="101.352" y2="431.472" gradientUnits="userSpaceOnUse"><stop offset="0" stop-color="#B8B8B8"/><stop offset=".174" stop-color="#CACACA"/><stop offset=".503" stop-color="#E6E6E6"/><stop offset=".789" stop-color="#F8F8F8"/><stop offset="1" stop-color="#FEFEFE"/></linearGradient><linearGradient id="paint13_linear_148_61" x1="89.509" y1="447.166" x2="59.08" y2="451.286" gradientUnits="userSpaceOnUse"><stop offset="0" stop-color="#231F20"/><stop offset=".398" stop-color="#2C292A"/><stop offset="1" stop-color="#404041"/></linearGradient><linearGradient id="paint14_linear_148_61" x1="60.673" y1="444.481" x2="87.481" y2="446.038" gradientUnits="userSpaceOnUse"><stop offset="0" stop-color="#231F20"/><stop offset=".398" stop-color="#2C292A"/><stop offset="1" stop-color="#404041"/></linearGradient><linearGradient id="paint15_linear_148_61" x1="58.54" y1="438.145" x2="72.501" y2="454.087" gradientUnits="userSpaceOnUse"><stop offset="0" stop-color="#231F20"/><stop offset=".398" stop-color="#2C292A"/><stop offset="1" stop-color="#404041"/></linearGradient><linearGradient id="paint16_linear_148_61" x1="63.366" y1="445.75" x2="67.41" y2="445.734" gradientUnits="userSpaceOnUse"><stop offset="0" stop-color="#231F20"/><stop offset=".398" stop-color="#2C292A"/><stop offset="1" stop-color="#404041"/></linearGradient><linearGradient id="paint17_linear_148_61" x1="24.17" y1="455.676" x2="113.638" y2="454.942" gradientUnits="userSpaceOnUse"><stop stop-color="#992053"/><stop offset=".178" stop-color="#B02753"/><stop offset=".544" stop-color="#DB3354"/><stop offset=".83" stop-color="#F53A54"/><stop offset="1" stop-color="#FF3D54"/></linearGradient><linearGradient id="paint18_linear_148_61" x1="36.318" y1="486.713" x2="111.151" y2="420.542" gradientUnits="userSpaceOnUse"><stop stop-color="#fff"/><stop offset=".045" stop-color="#fff" stop-opacity=".955"/><stop offset="1" stop-color="#fff" stop-opacity="0"/></linearGradient><clipPath id="clip0_148_61"><path fill="#fff" transform="translate(182.418 400.488)" d="M0 0h73.892v157.646H0z"/></clipPath><clipPath id="clip1_148_61"><path fill="#fff" transform="translate(172.093 430.117)" d="M0 0h94.274v125.726H0z"/></clipPath><clipPath id="clip2_148_61"><path fill="#fff" transform="translate(11 587)" d="M0 0h38.158v87.989H0z"/></clipPath><clipPath id="clip3_148_61"><path fill="#fff" transform="matrix(.99145 .13053 .0082 .99997 9.015 382.37)" d="M0 0h127.455v138.681H0z"/></clipPath></defs></svg>