<svg width="193" height="50" fill="none" xmlns="http://www.w3.org/2000/svg"><path fill-rule="evenodd" clip-rule="evenodd" d="M28.332 30.815c-.528-.674-1.387-1.65-2.122-1.742-.447-.057-.96.318-1.467.672-.1.05-.863.51-.955.538-.49.14-1.533.182-2.165-.4-.607-.563-1.568-1.604-2.344-2.558-.741-.982-1.518-2.164-1.916-2.889-.415-.75-.116-1.745.14-2.182.048-.079.616-.67.743-.808l.019.023c.47-.4.963-.806 1.019-1.246.091-.733-.649-1.8-1.177-2.474-.53-.676-1.348-1.86-2.464-1.693a3.04 3.04 0 00-1.139.425l-.01-.01-.059.045-.03.017.003.005c-.205.16-.79.602-.857.662-.724.651-1.814 2.185-.971 4.944.625 2.05 1.958 4.457 3.774 6.892l-.01.01c.089.117.18.223.273.337.086.116.171.23.26.346l.013-.009c1.927 2.349 3.948 4.226 5.792 5.334 2.483 1.49 4.248.819 5.064.285.076-.051.66-.51.857-.661l.005.005c.007-.008.012-.018.022-.025l.053-.042-.007-.01a3.01 3.01 0 00.704-.998c.434-1.037-.519-2.117-1.048-2.793z" fill="#EB242A"/><rect x="1" y="1" width="191" height="48" rx="24" stroke="#EB242A" stroke-width="2"/><path d="M70.8 31.16c-1.323 0-2.341-.501-3.056-1.504-.715-1.013-1.072-2.453-1.072-4.32 0-1.888.357-3.323 1.072-4.304.715-.981 1.733-1.472 3.056-1.472 1.333 0 2.352.49 3.056 1.472.715.981 1.072 2.41 1.072 4.288 0 1.877-.357 3.323-1.072 4.336-.704 1.003-1.723 1.504-3.056 1.504zm0-1.696c.725 0 1.264-.33 1.616-.992.352-.672.528-1.723.528-3.152 0-1.43-.176-2.464-.528-3.104-.352-.65-.89-.976-1.616-.976-.715 0-1.253.325-1.616.976-.352.64-.528 1.675-.528 3.104 0 1.43.176 2.48.528 3.152.363.661.901.992 1.616.992zm9.994 1.696c-1.419 0-2.518-.49-3.296-1.472-.768-.981-1.152-2.357-1.152-4.128 0-1.28.197-2.363.592-3.248.394-.896.954-1.579 1.68-2.048.736-.47 1.616-.704 2.64-.704.608 0 1.21.112 1.808.336.597.213 1.11.523 1.536.928l-.688 1.536a3.896 3.896 0 00-1.28-.8 3.76 3.76 0 00-1.392-.272c-.96 0-1.69.325-2.192.976-.502.65-.752 1.621-.752 2.912v1.2h-.192c.085-.544.266-1.008.544-1.392a2.65 2.65 0 011.072-.896c.437-.213.922-.32 1.456-.32.661 0 1.248.155 1.76.464.512.31.912.736 1.2 1.28.298.544.448 1.168.448 1.872 0 .725-.166 1.376-.496 1.952a3.57 3.57 0 01-1.328 1.344c-.566.32-1.222.48-1.968.48zm-.112-1.632a2.06 2.06 0 001.04-.256c.298-.17.528-.41.688-.72.17-.32.256-.683.256-1.088 0-.416-.086-.779-.256-1.088a1.72 1.72 0 00-.688-.72 1.965 1.965 0 00-1.04-.272c-.395 0-.742.09-1.04.272-.299.17-.534.41-.704.72-.17.31-.256.672-.256 1.088 0 .405.085.768.256 1.088.17.31.405.55.704.72.298.17.645.256 1.04.256zm9.305 1.632c-1.322 0-2.357-.283-3.103-.848-.737-.565-1.105-1.35-1.105-2.352 0-.79.24-1.445.72-1.968.48-.523 1.105-.832 1.873-.928v.336c-.694-.15-1.254-.475-1.68-.976-.416-.501-.624-1.11-.624-1.824 0-.95.346-1.69 1.04-2.224.703-.544 1.663-.816 2.88-.816 1.226 0 2.186.272 2.88.816.704.533 1.056 1.275 1.056 2.224 0 .715-.203 1.328-.609 1.84-.394.512-.933.827-1.615.944v-.32c.757.107 1.365.421 1.823.944.46.512.689 1.163.689 1.952 0 1.003-.374 1.787-1.12 2.352-.736.565-1.771.848-3.105.848zm0-1.6c.78 0 1.36-.144 1.745-.432.383-.299.576-.736.576-1.312 0-.576-.193-1.008-.577-1.296-.383-.288-.965-.432-1.743-.432-.769 0-1.35.144-1.745.432-.383.288-.575.72-.575 1.296 0 .576.191 1.013.575 1.312.395.288.977.432 1.745.432zm0-5.072c.662 0 1.163-.15 1.505-.448.352-.299.527-.71.527-1.232 0-.512-.175-.912-.528-1.2-.34-.299-.842-.448-1.504-.448-.65 0-1.151.15-1.503.448-.342.288-.512.688-.512 1.2 0 .523.17.933.512 1.232.352.299.853.448 1.504.448zm13.985 6.672c-1.323 0-2.341-.501-3.056-1.504-.715-1.013-1.072-2.453-1.072-4.32 0-1.888.357-3.323 1.072-4.304.715-.981 1.733-1.472 3.056-1.472 1.333 0 2.352.49 3.056 1.472.715.981 1.072 2.41 1.072 4.288 0 1.877-.357 3.323-1.072 4.336-.704 1.003-1.723 1.504-3.056 1.504zm0-1.696c.725 0 1.264-.33 1.616-.992.352-.672.528-1.723.528-3.152 0-1.43-.176-2.464-.528-3.104-.352-.65-.891-.976-1.616-.976-.715 0-1.253.325-1.616.976-.352.64-.528 1.675-.528 3.104 0 1.43.176 2.48.528 3.152.363.661.901.992 1.616.992zm9.418 1.696a7.44 7.44 0 01-2.24-.336c-.715-.235-1.302-.555-1.76-.96l.672-1.552a5.414 5.414 0 001.552.848 5.376 5.376 0 001.712.272c.725 0 1.274-.144 1.648-.432.373-.288.56-.71.56-1.264 0-.533-.187-.933-.56-1.2-.363-.277-.896-.416-1.6-.416h-1.824v-1.648h1.648c.608 0 1.093-.15 1.456-.448.362-.299.544-.71.544-1.232 0-.49-.171-.864-.512-1.12-.331-.256-.811-.384-1.44-.384-1.131 0-2.128.384-2.992 1.152l-.672-1.536c.458-.427 1.024-.757 1.696-.992a6.544 6.544 0 012.144-.352c1.173 0 2.09.267 2.752.8.672.523 1.008 1.253 1.008 2.192 0 .672-.192 1.253-.576 1.744-.374.48-.891.8-1.552.96v-.192c.778.128 1.381.448 1.808.96.437.501.656 1.13.656 1.888 0 1.003-.368 1.797-1.104 2.384-.736.576-1.744.864-3.024.864zm10.665-.16v-2.208h-5.04v-1.44l5.36-7.632h1.664v7.504h1.616v1.568h-1.616V31h-1.984zm0-3.776v-5.072h.384l-3.888 5.552v-.48h3.504zm12.913 3.936a7.44 7.44 0 01-2.24-.336c-.715-.235-1.302-.555-1.76-.96l.672-1.552a5.414 5.414 0 001.552.848 5.376 5.376 0 001.712.272c.725 0 1.274-.144 1.648-.432.373-.288.56-.71.56-1.264 0-.533-.187-.933-.56-1.2-.363-.277-.896-.416-1.6-.416h-1.824v-1.648h1.648c.608 0 1.093-.15 1.456-.448.362-.299.544-.71.544-1.232 0-.49-.171-.864-.512-1.12-.331-.256-.811-.384-1.44-.384-1.131 0-2.128.384-2.992 1.152l-.672-1.536c.458-.427 1.024-.757 1.696-.992A6.544 6.544 0 01137 19.56c1.173 0 2.09.267 2.752.8.672.523 1.008 1.253 1.008 2.192 0 .672-.192 1.253-.576 1.744-.374.48-.891.8-1.552.96v-.192c.778.128 1.381.448 1.808.96.437.501.656 1.13.656 1.888 0 1.003-.368 1.797-1.104 2.384-.736.576-1.744.864-3.024.864zm10.666-.16v-2.208h-5.04v-1.44l5.36-7.632h1.664v7.504h1.616v1.568h-1.616V31h-1.984zm0-3.776v-5.072h.384l-3.888 5.552v-.48h3.504zm8.697 3.936c-1.322 0-2.341-.501-3.056-1.504-.714-1.013-1.072-2.453-1.072-4.32 0-1.888.358-3.323 1.072-4.304.715-.981 1.734-1.472 3.056-1.472 1.334 0 2.352.49 3.056 1.472.715.981 1.072 2.41 1.072 4.288 0 1.877-.357 3.323-1.072 4.336-.704 1.003-1.722 1.504-3.056 1.504zm0-1.696c.726 0 1.264-.33 1.616-.992.352-.672.528-1.723.528-3.152 0-1.43-.176-2.464-.528-3.104-.352-.65-.89-.976-1.616-.976-.714 0-1.253.325-1.616.976-.352.64-.528 1.675-.528 3.104 0 1.43.176 2.48.528 3.152.363.661.902.992 1.616.992z" fill="#EB242A"/><path d="M25 23.037a.757.757 0 01.652-.75l.102-.006h8.671l-2.987-2.99a.757.757 0 01-.075-.985l.073-.084a.753.753 0 01.983-.074l.084.073 4.275 4.277.063.071.06.093.02.036.039.092.03.12.008.071.002.06a.7.7 0 01-.016.152l-.023.083a.741.741 0 01-.147.259l-4.31 4.325a.754.754 0 01-1.285-.45.758.758 0 01.144-.534l.074-.085 2.984-2.997h-8.667a.754.754 0 01-.754-.757z" fill="#EB242A" stroke="#EB242A" stroke-width=".75"/><circle cx="24.5" cy="24.5" r="23.5" stroke="#EB242A" stroke-width="2"/></svg>